<svg width="45" height="65" viewBox="0 0 45 65" fill="none" xmlns="http://www.w3.org/2000/svg">
<g clip-path="url(#clip0_30_185)">
<path d="M22.4726 64.3383L4.15936 59.2109L0.0782471 13.0458H44.9218L40.8365 59.2038L22.4726 64.3383V64.3383Z" fill="#264DE4"/>
<path d="M37.3389 56.2646L40.8299 16.8204H22.5V60.4136L37.3389 56.2646V56.2646Z" fill="#2965F1"/>
<path d="M9.43401 33.9424L9.93709 39.6043H22.5V33.9424H9.43401ZM8.42291 22.4825L8.93321 28.1444H22.5V22.4825H8.42291V22.4825ZM22.5 48.6471L22.4754 48.6537L16.2232 46.9511L15.8235 42.4354H10.1879L10.9744 51.3256L22.4742 54.5451L22.5 54.538V48.6471Z" fill="#EBEBEB"/>
<path d="M10.632 0.5H17.4312V3.36777H13.4754V6.23554H17.4315V9.10313H10.632V0.5ZM18.7912 0.5H25.5906V2.9937H21.6346V3.4924H25.5906V9.22793H18.7914V6.60925H22.7473V6.11055H18.791V0.5H18.7912ZM26.9506 0.5H33.75V2.9937H29.794V3.4924H33.75V9.22793H26.9506V6.60925H30.9066V6.11055H26.9508V0.5H26.9506Z" fill="#62FBD7"/>
<path d="M35.5301 33.9424L36.5435 22.4825H22.4806V28.1444H30.3912L29.8803 33.9424H22.4806V39.6043H29.3936L28.7418 46.9475L22.4805 48.6519V54.5424L33.9894 51.3256L34.0738 50.3689L35.3932 35.4628L35.5301 33.9424V33.9424Z" fill="white"/>
</g>
<defs>
<clipPath id="clip0_30_185">
<rect width="45" height="64" fill="white" transform="translate(0 0.5)"/>
</clipPath>
</defs>
</svg>
