<svg width="46" height="65" viewBox="0 0 46 65" fill="none" xmlns="http://www.w3.org/2000/svg">
<path d="M45.92 12.7418L41.7439 59.6211L22.972 64.8358L4.25176 59.6282L0.0799561 12.7418H45.92Z" fill="#E44D26"/>
<path d="M23 60.8497L38.1687 56.6359L41.7373 16.5754H23V60.8497Z" fill="#F16529"/>
<path d="M14.8817 28.0764H23V22.326H8.61011L8.74739 23.8687L10.1579 39.7154H23V33.965H15.4062L14.8817 28.0764V28.0764ZM16.1751 42.5907H10.4143L11.2183 51.6197L22.9736 54.8895L23 54.8824V48.8995L22.9749 48.9061L16.5837 47.1769L16.1751 42.5907Z" fill="#EBEBEB"/>
<path d="M4.34485 0H7.26118V2.88719H9.929V0H12.8455V8.74313H9.92918V5.81543H7.26136V8.74313H4.34503L4.34485 0ZM16.6804 2.89943H14.1134V0H22.1659V2.89943H19.5973V8.74313H16.6809L16.6804 2.89943ZM23.4438 0H26.4847L28.3552 3.07211L30.224 0H33.2661V8.74313H30.3616V4.40956L28.3552 7.51821H28.3049L26.2973 4.40956V8.74313H23.4438V0ZM34.7174 0H37.6347V5.85324H41.7358V8.74313H34.7172L34.7174 0Z" fill="#62FBD7"/>
<path d="M22.9802 39.7154H30.0468L29.3805 47.1733L22.98 48.9043V54.8868L34.7447 51.6197L34.831 50.6482L36.1797 35.5091L36.3197 33.9649H22.9802V39.7154ZM22.9802 28.0624V28.0764H36.8419L36.9569 26.784L37.2185 23.8687L37.3556 22.326H22.9802V28.0626V28.0624Z" fill="white"/>
</svg>
