<svg width="59" height="59" viewBox="0 0 59 59" fill="none" xmlns="http://www.w3.org/2000/svg">
<path d="M29.7498 0.0166626C44.6915 0.0166626 43.7586 6.5217 43.7586 6.5217L43.742 13.2611H29.4834V15.2845H49.4053C49.4053 15.2845 58.9666 14.1959 58.9666 29.3311C58.9666 44.4668 50.6213 43.93 50.6213 43.93H45.6408V36.9065C45.6408 36.9065 45.9093 28.5285 37.4288 28.5285H23.2868C23.2868 28.5285 15.3414 28.6573 15.3414 20.8194V7.85973C15.3414 7.85973 14.1346 0.0166626 29.7498 0.0166626ZM37.612 4.54879C37.2751 4.54848 36.9414 4.61488 36.63 4.74419C36.3187 4.8735 36.0358 5.06317 35.7975 5.30236C35.5593 5.54155 35.3703 5.82555 35.2415 6.13813C35.1127 6.4507 35.0466 6.7857 35.0469 7.12396C35.0466 7.46223 35.1127 7.79723 35.2415 8.1098C35.3703 8.42237 35.5593 8.70638 35.7975 8.94557C36.0358 9.18476 36.3187 9.37443 36.63 9.50374C36.9414 9.63304 37.2751 9.69945 37.612 9.69914C37.9489 9.69945 38.2826 9.63304 38.594 9.50374C38.9053 9.37443 39.1882 9.18476 39.4265 8.94557C39.6647 8.70638 39.8537 8.42237 39.9825 8.1098C40.1113 7.79723 40.1774 7.46223 40.1771 7.12396C40.1774 6.7857 40.1113 6.4507 39.9825 6.13813C39.8537 5.82555 39.6647 5.54155 39.4265 5.30236C39.1882 5.06317 38.9053 4.8735 38.594 4.74419C38.2826 4.61488 37.9489 4.54848 37.612 4.54879V4.54879Z" fill="url(#paint0_linear_30_170)"/>
<path d="M29.3255 58.7978C14.3838 58.7978 15.3167 52.2927 15.3167 52.2927L15.3333 45.5536H29.5922V43.5302H9.67021C9.67021 43.5302 0.108985 44.6188 0.108985 29.4831C0.108985 14.3477 8.45426 14.8844 8.45426 14.8844H13.4347V21.9077C13.4347 21.9077 13.1662 30.2857 21.6467 30.2857H35.7888C35.7888 30.2857 43.7342 30.1569 43.7342 37.9951V50.955C43.7342 50.955 44.9407 58.7978 29.3257 58.7978H29.3255ZM21.4633 54.2661C21.8002 54.2664 22.1339 54.2 22.4453 54.0707C22.7566 53.9414 23.0395 53.7517 23.2778 53.5126C23.516 53.2734 23.705 52.9894 23.8338 52.6768C23.9626 52.3642 24.0287 52.0292 24.0284 51.6909C24.0287 51.3527 23.9626 51.0176 23.8338 50.705C23.7051 50.3924 23.5161 50.1084 23.2779 49.8692C23.0396 49.63 22.7567 49.4403 22.4453 49.311C22.134 49.1816 21.8003 49.1152 21.4633 49.1155C21.1264 49.1152 20.7927 49.1816 20.4813 49.3109C20.17 49.4402 19.8871 49.6299 19.6488 49.8691C19.4106 50.1083 19.2216 50.3923 19.0928 50.7049C18.964 51.0175 18.8979 51.3525 18.8982 51.6907C18.8979 52.029 18.964 52.364 19.0928 52.6766C19.2216 52.9891 19.4106 53.2731 19.6488 53.5123C19.8871 53.7515 20.17 53.9412 20.4813 54.0705C20.7927 54.1998 21.1264 54.2662 21.4633 54.2659V54.2661Z" fill="url(#paint1_linear_30_170)"/>
<defs>
<linearGradient id="paint0_linear_30_170" x1="53.3104" y1="5.30367" x2="24.0293" y2="34.1794" gradientUnits="userSpaceOnUse">
<stop stop-color="#387EB8"/>
<stop offset="1" stop-color="#366994"/>
</linearGradient>
<linearGradient id="paint1_linear_30_170" x1="35.407" y1="23.9195" x2="3.96825" y2="53.5235" gradientUnits="userSpaceOnUse">
<stop stop-color="#FFE052"/>
<stop offset="1" stop-color="#FFC331"/>
</linearGradient>
</defs>
</svg>
