<svg width="65" height="59" viewBox="0 0 65 59" fill="none" xmlns="http://www.w3.org/2000/svg">
<path d="M53.4429 19.1231C52.7512 18.881 52.0536 18.6566 51.3508 18.4504C51.4688 17.9582 51.5775 17.472 51.674 16.9943C53.2579 9.15043 52.2224 2.83123 48.6858 0.750644C45.2948 -1.24394 39.7493 0.835867 34.1486 5.8086C33.5966 6.29956 33.0569 6.80467 32.53 7.32344C32.1772 6.97848 31.8182 6.6402 31.4531 6.3088C25.5833 0.991807 19.6998 -1.24912 16.167 0.837421C12.7791 2.83822 11.7759 8.77871 13.2019 16.2126C13.3437 16.9488 13.5039 17.6812 13.6822 18.4092C12.8494 18.6506 12.0458 18.9076 11.2767 19.1811C4.39486 21.629 0 25.4651 0 29.4442C0 33.5538 4.71809 37.6758 11.8859 40.1753C12.467 40.3771 13.0529 40.5641 13.6431 40.7361C13.4515 41.5201 13.2813 42.3094 13.1328 43.1032C11.7734 50.408 12.835 56.2081 16.2137 58.1962C19.7034 60.2493 25.5605 58.1392 31.2635 53.053C31.7259 52.6395 32.1782 52.2143 32.6198 51.7778C33.1905 52.3395 33.7764 52.8849 34.3769 53.4134C39.9014 58.263 45.3573 60.2214 48.7327 58.2278C52.2191 56.1687 53.3523 49.9379 51.8812 42.3571C51.7653 41.7632 51.6353 41.1723 51.4914 40.5848C51.9028 40.4605 52.3065 40.3325 52.7 40.1994C60.1517 37.6808 65 33.6087 65 29.4442C65 25.4506 60.4632 21.5886 53.4429 19.1231ZM51.8268 37.5106C51.4714 37.6305 51.1068 37.7463 50.735 37.859C49.9124 35.202 48.8023 32.377 47.4436 29.4579C48.7401 26.6085 49.8075 23.8194 50.6071 21.1798C51.272 21.3762 51.9172 21.5832 52.5393 21.8015C58.5543 23.9142 62.2233 27.0374 62.2233 29.4442C62.2233 32.0076 58.2608 35.3354 51.8268 37.5106ZM49.1573 42.9073C49.8078 46.2593 49.9004 49.29 49.4696 51.6594C49.0826 53.7884 48.3041 55.2077 47.3413 55.7763C45.2931 56.986 40.9124 55.4136 36.188 51.2659C35.6295 50.7746 35.0845 50.2676 34.5536 49.7454C36.3853 47.7018 38.2157 45.3262 40.0022 42.6877C43.1445 42.4033 46.1132 41.938 48.8054 41.3031C48.935 41.835 49.0524 42.3698 49.1573 42.9073ZM22.1599 55.5672C20.1586 56.2881 18.5646 56.3089 17.601 55.7421C15.5507 54.5358 14.6984 49.8785 15.861 43.6316C15.9992 42.8934 16.1575 42.1593 16.3356 41.43C18.998 42.031 21.9451 42.4631 25.0948 42.7237C26.8935 45.3055 28.7767 47.6785 30.6747 49.7565C30.2713 50.1547 29.8584 50.5427 29.4364 50.9201C26.9143 53.1691 24.3872 54.7647 22.1599 55.5672ZM12.7842 37.4948C9.61467 36.3894 6.99715 34.9531 5.20305 33.3857C3.59074 31.9773 2.77697 30.5787 2.77697 29.4442C2.77697 27.0294 6.30551 23.9495 12.1908 21.8562C12.905 21.6023 13.6525 21.3627 14.4282 21.1379C15.2417 23.837 16.3087 26.6592 17.5962 29.5131C16.2919 32.4091 15.2097 35.2764 14.3884 38.0074C13.8496 37.8499 13.3147 37.679 12.7842 37.4948ZM15.927 15.6683C14.7055 9.29938 15.5167 4.49502 17.5584 3.2892C19.7328 2.0049 24.5413 3.83603 29.6095 8.4272C29.94 8.72726 30.2652 9.03341 30.5848 9.34548C28.6962 11.4144 26.8303 13.7698 25.0476 16.3364C21.9906 16.6255 19.0643 17.0896 16.3739 17.7116C16.2081 17.0345 16.0591 16.353 15.927 15.6683ZM43.9651 22.7317C43.3297 21.6119 42.6706 20.5062 41.9885 19.4153C44.0624 19.6829 46.0495 20.038 47.9154 20.4722C47.3553 22.3041 46.6571 24.2191 45.8352 26.1826C45.2344 25.0197 44.6109 23.8692 43.9651 22.7317ZM32.5312 11.3701C33.8119 12.7858 35.0947 14.3661 36.3563 16.081C33.797 15.9576 31.2333 15.9571 28.6739 16.0794C29.9368 14.3804 31.2305 12.8021 32.5312 11.3701ZM21.0239 22.7512C20.3862 23.8795 19.7744 25.0228 19.189 26.1803C18.3805 24.2238 17.6886 22.2999 17.1237 20.4421C18.9782 20.0188 20.9559 19.6728 23.0166 19.4101C22.3268 20.5076 21.6624 21.6218 21.0239 22.7512ZM23.0758 39.6797C20.9468 39.4373 18.9394 39.1091 17.0854 38.6972C17.6592 36.8062 18.3663 34.8414 19.1923 32.843C19.78 34.0013 20.3944 35.1453 21.0349 36.2742C21.6935 37.4347 22.3755 38.5713 23.0758 39.6797ZM32.6079 47.7176C31.2917 46.2691 29.979 44.6665 28.697 42.9428C29.9416 42.9926 31.2104 43.0179 32.5 43.0179C33.8249 43.0179 35.1345 42.9876 36.4236 42.9291C35.1579 44.6838 33.88 46.2888 32.6079 47.7176ZM45.8613 32.7409C46.7302 34.7614 47.4624 36.7158 48.0439 38.5744C46.1594 39.0132 44.1246 39.3666 41.9806 39.629C42.6676 38.5178 43.3329 37.3929 43.9761 36.2548C44.6299 35.0979 45.2585 33.9263 45.8613 32.7409ZM41.5708 34.8394C40.5862 36.5843 39.5462 38.2962 38.4526 39.9722C36.4715 40.1153 34.486 40.1864 32.5 40.1854C30.4771 40.1854 28.5096 40.1211 26.615 39.9958C25.4928 38.3236 24.433 36.6088 23.4378 34.8549C22.4474 33.1103 21.5225 31.328 20.6647 29.5118C21.5203 27.6951 22.4427 25.9119 23.4297 24.166C24.4164 22.4196 25.4675 20.7124 26.5812 19.0475C28.5142 18.8982 30.4964 18.8205 32.4997 18.8205C34.5122 18.8205 36.4972 18.899 38.4297 19.0493C39.5322 20.7117 40.5768 22.4134 41.5617 24.151C42.552 25.8931 43.4865 27.6675 44.3638 29.4716C43.4955 31.2941 42.564 33.0845 41.5708 34.8394ZM47.2989 3.20476C49.4754 4.48544 50.3219 9.64985 48.9544 16.4224C48.867 16.8544 48.769 17.2945 48.6624 17.7409C45.9654 17.1057 43.0371 16.6335 39.9712 16.34C38.1852 13.7452 36.3345 11.3862 34.4767 9.34393C34.9636 8.8651 35.462 8.39869 35.9717 7.94513C40.7705 3.68475 45.2555 2.00257 47.2989 3.20476ZM32.5 23.5226C35.7056 23.5226 38.3043 26.1738 38.3043 29.4442C38.3043 32.7145 35.7056 35.3657 32.5 35.3657C29.2944 35.3657 26.6957 32.7145 26.6957 29.4442C26.6957 26.1738 29.2944 23.5226 32.5 23.5226Z" fill="#00D8FF"/>
</svg>
