<svg width="64" height="65" viewBox="0 0 64 65" fill="none" xmlns="http://www.w3.org/2000/svg">
<g clip-path="url(#clip0_30_191)">
<path d="M0 0.5H64V64.5H0V0.5Z" fill="#F7DF1E"/>
<path d="M16.828 53.983L21.7255 51.019C22.6705 52.6943 23.53 54.1118 25.5918 54.1118C27.568 54.1118 28.8143 53.3388 28.8143 50.3318V29.8823H34.8285V50.4168C34.8285 56.646 31.177 59.4815 25.8495 59.4815C21.0383 59.4815 18.2455 56.9898 16.8278 53.9825M38.0953 53.3385L42.9923 50.5033C44.2815 52.6085 45.957 54.155 48.921 54.155C51.4133 54.155 53.0023 52.909 53.0023 51.1905C53.0023 49.1285 51.3698 48.398 48.6203 47.1955L47.117 46.5505C42.7778 44.7038 39.8995 42.3838 39.8995 37.4863C39.8995 32.9753 43.3363 29.5383 48.7065 29.5383C52.53 29.5383 55.2795 30.8703 57.2555 34.35L52.5725 37.3575C51.5413 35.5103 50.4248 34.78 48.7063 34.78C46.9448 34.78 45.8278 35.897 45.8278 37.3575C45.8278 39.1618 46.9448 39.8925 49.5223 41.0095L51.0258 41.6538C56.1383 43.845 59.0165 46.0788 59.0165 51.1048C59.0165 56.5183 54.7635 59.4823 49.0498 59.4823C43.465 59.4823 39.8563 56.8188 38.095 53.3388" fill="black"/>
</g>
<defs>
<clipPath id="clip0_30_191">
<rect width="64" height="64" fill="white" transform="translate(0 0.5)"/>
</clipPath>
</defs>
</svg>
